<?xml version="1.0" encoding="utf-8"?>
<!-- Generator: Adobe Illustrator 16.0.0, SVG Export Plug-In . SVG Version: 6.00 Build 0)  -->
<!DOCTYPE svg PUBLIC "-//W3C//DTD SVG 1.1//EN" "http://www.w3.org/Graphics/SVG/1.1/DTD/svg11.dtd">
<svg version="1.1" id="Layer_1" xmlns="http://www.w3.org/2000/svg" xmlns:xlink="http://www.w3.org/1999/xlink" x="0px" y="0px"
	 width="800px" height="140.228px" viewBox="0 327.5 800 140.228" enable-background="new 0 327.5 800 140.228"
	 xml:space="preserve">
<g>
	<defs>
		<path id="SVGID_1_" d="M15.34,404.227c-3.314,3.314-8.688,3.315-12.003,0.001l-0.851-0.852c-3.314-3.314-3.314-8.688,0-12.003
			l12.68-12.68c3.314-3.314,8.688-3.315,12.002,0l0.852,0.852c3.314,3.314,3.313,8.688-0.001,12.002L15.34,404.227z"/>
	</defs>
	<clipPath id="SVGID_2_">
		<use xlink:href="#SVGID_1_"  overflow="visible"/>
	</clipPath>
	<path clip-path="url(#SVGID_2_)" fill="#F9A224" d="M-0.387,375.821h31.279V407.1H-0.387V375.821z"/>
</g>
<g>
	<defs>
		<path id="SVGID_3_" d="M48.759,347.612c-3.314-3.315-3.314-8.688,0-12.003l0.852-0.851c3.314-3.314,8.688-3.314,12.003,0
			l12.68,12.68c3.314,3.314,3.314,8.688,0,12.002l-0.851,0.852c-3.314,3.314-8.688,3.313-12.003-0.001L48.759,347.612z"/>
	</defs>
	<clipPath id="SVGID_4_">
		<use xlink:href="#SVGID_3_"  overflow="visible"/>
	</clipPath>
	<path clip-path="url(#SVGID_4_)" fill="#4D9F68" d="M45.886,331.885h31.278v31.279H45.886V331.885z"/>
</g>
<g>
	<defs>
		<path id="SVGID_5_" d="M19.946,369.38c-4.688,0-8.487-3.8-8.487-8.487v-1.204c0-4.687,3.8-8.487,8.487-8.487h17.932
			c4.688,0,8.488,3.8,8.488,8.487v1.204c0,4.687-3.8,8.487-8.488,8.487H19.946z"/>
	</defs>
	<clipPath id="SVGID_6_">
		<use xlink:href="#SVGID_5_"  overflow="visible"/>
	</clipPath>
	<path clip-path="url(#SVGID_6_)" fill="#FFCA36" d="M11.072,350.815h35.68v18.951h-35.68V350.815z"/>
</g>
<g>
	<g>
		<defs>
			<path id="SVGID_7_" d="M37.638,431.74c0,4.688-3.8,8.487-8.487,8.487h-1.205c-4.687,0-8.486-3.8-8.486-8.487v-17.932
				c0-4.688,3.799-8.488,8.487-8.488h1.204c4.687,0,8.487,3.801,8.487,8.488V431.74z"/>
		</defs>
		<clipPath id="SVGID_8_">
			<use xlink:href="#SVGID_7_"  overflow="visible"/>
		</clipPath>
		<path clip-path="url(#SVGID_8_)" fill="#FD583B" d="M19.073,404.934h18.951v35.681H19.073V404.934z"/>
	</g>
</g>
<g>
	<g>
		<defs>
			<path id="SVGID_9_" d="M73.778,435.802c3.314,3.315,3.315,8.688,0,12.003l-0.852,0.852c-3.314,3.314-8.688,3.314-12.003,0
				l-12.68-12.68c-3.314-3.314-3.314-8.688,0-12.003l0.852-0.852c3.314-3.314,8.688-3.314,12.003,0.001L73.778,435.802
				L73.778,435.802z"/>
		</defs>
		<clipPath id="SVGID_10_">
			<use xlink:href="#SVGID_9_"  overflow="visible"/>
		</clipPath>
		<path clip-path="url(#SVGID_10_)" fill="#FD46AC" d="M45.372,420.25h31.279v31.278H45.372V420.25z"/>
	</g>
</g>
<g>
	<g>
		<defs>
			<path id="SVGID_11_" d="M102.591,414.034c4.688,0,8.487,3.8,8.487,8.487v1.204c0,4.687-3.8,8.486-8.487,8.486H84.659
				c-4.688,0-8.488-3.8-8.488-8.487v-1.203c0-4.688,3.8-8.487,8.487-8.487H102.591L102.591,414.034z"/>
		</defs>
		<clipPath id="SVGID_12_">
			<use xlink:href="#SVGID_11_"  overflow="visible"/>
		</clipPath>
		<path clip-path="url(#SVGID_12_)" fill="#60668D" d="M75.785,413.647h35.68v18.951h-35.68V413.647z"/>
	</g>
</g>
<g>
	<g>
		<defs>
			<path id="SVGID_13_" d="M107.197,379.187c3.314-3.314,8.688-3.315,12.003,0l0.851,0.852c3.314,3.314,3.314,8.688,0,12.002
				l-12.68,12.679c-3.314,3.315-8.688,3.315-12.002,0.001l-0.852-0.852c-3.314-3.314-3.314-8.688,0-12.002L107.197,379.187
				L107.197,379.187z"/>
		</defs>
		<clipPath id="SVGID_14_">
			<use xlink:href="#SVGID_13_"  overflow="visible"/>
		</clipPath>
		<path clip-path="url(#SVGID_14_)" fill="#5363D6" d="M91.645,376.314h31.278v31.278H91.646L91.645,376.314z"/>
	</g>
</g>
<g>
	<g>
		<defs>
			<path id="SVGID_15_" d="M84.899,351.674c0-4.688,3.8-8.487,8.487-8.487h1.204c4.687,0,8.487,3.8,8.487,8.488v17.931
				c0,4.688-3.8,8.488-8.487,8.488h-1.204c-4.687,0-8.487-3.8-8.487-8.488V351.674z"/>
		</defs>
		<clipPath id="SVGID_16_">
			<use xlink:href="#SVGID_15_"  overflow="visible"/>
		</clipPath>
		<path clip-path="url(#SVGID_16_)" fill="#29B8BA" d="M84.513,342.8h18.951v35.68H84.513V342.8z"/>
	</g>
</g>
<g>
	<path fill="#FFFFFF" d="M155.006,437.346h14.386l0.046-9.133h0.256c2.199,3.716,5.159,6.42,8.881,8.108s7.74,2.534,12.054,2.534
		c4.653,0,8.839-0.825,12.561-2.472c3.723-1.647,6.895-3.907,9.517-6.781c2.622-2.873,4.609-6.253,5.962-10.14
		c1.353-3.887,2.031-8.069,2.031-12.549c0-4.479-0.72-8.661-2.157-12.549c-1.437-3.886-3.446-7.266-6.023-10.139
		c-2.58-2.874-5.687-5.134-9.323-6.781c-3.637-1.647-7.611-2.473-11.923-2.473c-2.875,0-5.413,0.295-7.61,0.886
		c-2.199,0.591-4.144,1.352-5.835,2.281c-1.691,0.929-3.13,1.921-4.313,2.978c-1.184,1.056-2.155,2.09-2.916,3.103h-0.402v-42.719
		h-15.191V437.346L155.006,437.346z M204.301,413.761c-0.805,2.197-1.99,4.143-3.556,5.833c-1.565,1.691-3.45,3.044-5.651,4.058
		c-2.202,1.016-4.7,1.521-7.493,1.521c-2.795,0-5.293-0.506-7.494-1.521c-2.202-1.014-4.087-2.366-5.652-4.058
		c-1.566-1.691-2.751-3.636-3.556-5.833c-0.805-2.197-1.206-4.479-1.206-6.848c0-2.367,0.401-4.649,1.206-6.847
		c0.805-2.197,1.99-4.141,3.556-5.832c1.565-1.691,3.45-3.043,5.652-4.059c2.201-1.014,4.699-1.521,7.494-1.521
		c2.793,0,5.291,0.507,7.493,1.521c2.201,1.016,4.085,2.367,5.651,4.059c1.566,1.691,2.751,3.635,3.556,5.832
		c0.805,2.197,1.208,4.479,1.208,6.847S205.106,411.563,204.301,413.761L204.301,413.761z M227.217,437.346h15.191v-32.558
		c0-0.844,0.19-2.11,0.57-3.801c0.38-1.688,1.14-3.378,2.281-5.068c1.142-1.688,2.789-3.188,4.944-4.497
		c2.155-1.308,5.008-1.963,8.558-1.963c1.182,0,2.386,0.104,3.612,0.308c1.225,0.204,2.471,0.472,3.74,0.798v-14.688
		c-0.931-0.257-1.839-0.473-2.726-0.646c-0.886-0.173-1.795-0.259-2.726-0.259c-4.056,0-7.647,0.975-10.774,2.924
		c-3.128,1.949-5.536,4.702-7.225,8.259h-0.254v-9.673h-15.191L227.217,437.346L227.217,437.346z M272.703,437.346h15.191v-60.865
		h-15.191V437.346z M273.314,362.194c1.817,1.812,4.119,2.718,6.907,2.718s5.132-0.863,7.034-2.592
		c1.9-1.728,2.852-3.898,2.852-6.513c0-2.612-0.951-4.783-2.852-6.512c-1.902-1.728-4.246-2.592-7.034-2.592
		s-5.09,0.907-6.907,2.719c-1.817,1.812-2.724,3.941-2.724,6.385C270.591,358.253,271.498,360.381,273.314,362.194L273.314,362.194z
		 M347.812,376.481l-0.046,9.133h-0.256c-2.201-3.716-5.161-6.418-8.883-8.108c-3.723-1.688-7.738-2.534-12.052-2.534
		c-4.738,0-8.946,0.826-12.626,2.475c-3.68,1.65-6.83,3.912-9.452,6.788c-2.622,2.876-4.61,6.259-5.963,10.15
		c-1.354,3.891-2.03,8.076-2.03,12.558c0,4.313,0.718,8.374,2.155,12.18c1.437,3.807,3.485,7.104,6.148,9.896
		c2.663,2.791,5.852,5.011,9.571,6.66c3.72,1.65,7.86,2.474,12.425,2.474c3.803,0,7.521-0.74,11.154-2.216
		c3.635-1.478,6.551-3.696,8.748-6.651h0.302v4.422c0,3.032-0.317,5.79-0.951,8.274c-0.635,2.484-1.691,4.61-3.169,6.381
		c-1.479,1.769-3.465,3.158-5.958,4.17c-2.492,1.01-5.557,1.516-9.189,1.516c-4.31,0-8.114-0.761-11.408-2.281
		c-3.297-1.522-6.466-3.677-9.508-6.465l-9.126,12.42c4.31,3.801,8.999,6.418,14.07,7.854c5.069,1.436,10.436,2.153,16.098,2.153
		c5.915,0,11.027-0.846,15.336-2.534c4.309-1.691,7.877-4.077,10.705-7.16c2.826-3.085,4.915-6.844,6.266-11.279
		c1.35-4.437,2.026-9.4,2.026-14.892v-55.381H347.812L347.812,376.481L347.812,376.481z M342.979,393.607
		c3.223,3.303,4.834,7.62,4.834,12.954c0,2.54-0.425,4.912-1.271,7.113c-0.85,2.2-2.057,4.085-3.625,5.65
		c-1.568,1.567-3.476,2.817-5.722,3.748c-2.248,0.931-4.77,1.396-7.567,1.396c-2.543,0-4.919-0.465-7.122-1.396
		c-2.204-0.931-4.112-2.201-5.722-3.811c-1.611-1.609-2.863-3.473-3.753-5.588c-0.89-2.116-1.334-4.403-1.334-6.858
		c0-2.71,0.444-5.186,1.334-7.431c0.89-2.243,2.119-4.148,3.688-5.714c1.569-1.566,3.456-2.793,5.659-3.683
		c2.204-0.89,4.664-1.334,7.377-1.334C335.349,388.654,339.757,390.306,342.979,393.607L342.979,393.607z M388.032,341.501h-15.191
		v95.844h15.191v-33.223c0-2.027,0.253-3.972,0.76-5.832c0.506-1.859,1.328-3.508,2.466-4.945c1.138-1.437,2.573-2.578,4.303-3.423
		c1.729-0.846,3.857-1.269,6.388-1.269c2.614,0,4.682,0.613,6.2,1.839s2.636,2.748,3.353,4.565c0.718,1.817,1.159,3.761,1.328,5.833
		c0.169,2.071,0.254,3.951,0.254,5.642v30.812h15.19v-38.413c0-3.126-0.38-6.127-1.14-9c-0.759-2.874-2.024-5.409-3.796-7.606
		c-1.773-2.198-4.071-3.972-6.897-5.324s-6.266-2.029-10.314-2.029c-4.726,0-8.585,1.036-11.581,3.104s-5.083,4.37-6.264,6.904
		h-0.249V341.501L388.032,341.501z M444.795,389.459v27.864c0,3.546,0.273,6.671,0.822,9.373s1.561,4.961,3.039,6.776
		c1.478,1.815,3.502,3.166,6.076,4.053c2.573,0.886,5.889,1.329,9.944,1.329c1.773,0,3.823-0.148,6.146-0.442
		c2.323-0.298,4.288-0.825,5.895-1.585v-12.805c-0.931,0.66-2.197,1.134-3.803,1.423c-1.606,0.289-3.084,0.432-4.436,0.432
		c-3.382,0-5.642-0.885-6.783-2.654c-1.142-1.771-1.71-4.174-1.71-7.209v-26.555h16.731v-12.978h-16.731v-17.62h-15.191v17.62
		h-12.549v12.978H444.795z M502.072,437.346h15.717l12.804-41.591h0.253l14.451,41.591h15.084l20.663-60.865h-15.339l-12.676,42.606
		h-0.254l-13.184-42.606h-16.478l-12.296,42.606h-0.253l-13.185-42.606h-16.479L502.072,437.346L502.072,437.346z M600.637,341.501
		h-15.19v95.844h15.19v-33.223c0-2.027,0.254-3.972,0.76-5.832c0.506-1.859,1.328-3.508,2.466-4.945
		c1.139-1.437,2.573-2.578,4.303-3.423s3.857-1.269,6.388-1.269c2.614,0,4.682,0.613,6.2,1.839s2.636,2.748,3.353,4.565
		s1.159,3.761,1.329,5.833c0.168,2.071,0.253,3.951,0.253,5.642v30.812h15.19v-38.413c0-3.126-0.38-6.127-1.14-9
		c-0.759-2.874-2.024-5.409-3.796-7.606c-1.772-2.198-4.071-3.972-6.897-5.324s-6.266-2.029-10.314-2.029
		c-4.726,0-8.585,1.036-11.581,3.104s-5.083,4.37-6.264,6.904h-0.249V341.501L600.637,341.501z M709.713,412.195v-4.179
		c0-5.316-0.697-10.022-2.094-14.116c-1.396-4.093-3.342-7.534-5.838-10.32c-2.495-2.785-5.498-4.915-9.009-6.393
		c-3.511-1.478-7.382-2.216-11.609-2.216c-4.568,0-8.884,0.76-12.943,2.282c-4.062,1.521-7.572,3.675-10.532,6.464
		c-2.962,2.789-5.309,6.148-7.042,10.078c-1.735,3.93-2.602,8.302-2.602,13.117c0,4.816,0.864,9.189,2.595,13.12
		c1.729,3.93,4.072,7.287,7.025,10.075c2.953,2.789,6.459,4.944,10.515,6.466c4.056,1.52,8.366,2.281,12.929,2.281
		c4.816,0,9.423-0.931,13.817-2.789c4.394-1.859,8.366-4.987,11.915-9.385l-10.901-8.238c-1.944,2.367-4.204,4.332-6.782,5.895
		s-5.768,2.344-9.568,2.344c-4.311,0-7.987-1.27-11.028-3.812c-3.044-2.542-4.818-6.101-5.324-10.675H709.713L709.713,412.195
		L709.713,412.195z M663.234,400.827c0.593-4.404,2.225-7.921,4.896-10.548c2.671-2.625,6.296-3.939,10.875-3.939
		c4.832,0,8.606,1.292,11.319,3.876c2.714,2.584,4.112,6.122,4.197,10.611H663.234L663.234,400.827z M777.442,412.195v-4.179
		c0-5.316-0.698-10.022-2.094-14.116c-1.396-4.093-3.343-7.534-5.838-10.32c-2.496-2.785-5.499-4.915-9.009-6.393
		c-3.512-1.478-7.382-2.216-11.61-2.216c-4.568,0-8.883,0.76-12.943,2.282c-4.062,1.521-7.572,3.675-10.532,6.464
		c-2.961,2.789-5.309,6.148-7.042,10.078c-1.735,3.93-2.602,8.302-2.602,13.117c0,4.816,0.865,9.189,2.596,13.12
		c1.729,3.93,4.071,7.287,7.024,10.075c2.954,2.789,6.459,4.944,10.515,6.466c4.056,1.52,8.366,2.281,12.93,2.281
		c4.816,0,9.422-0.931,13.816-2.789c4.394-1.859,8.366-4.987,11.916-9.385l-10.901-8.238c-1.944,2.367-4.205,4.332-6.783,5.895
		s-5.768,2.344-9.568,2.344c-4.31,0-7.986-1.27-11.028-3.812c-3.043-2.542-4.818-6.101-5.324-10.675H777.442L777.442,412.195
		L777.442,412.195z M730.964,400.827c0.592-4.404,2.224-7.921,4.896-10.548c2.671-2.625,6.295-3.939,10.874-3.939
		c4.832,0,8.606,1.292,11.319,3.876c2.714,2.584,4.112,6.122,4.197,10.611H730.964L730.964,400.827z M784.809,437.346H800v-95.83
		h-15.191V437.346L784.809,437.346z"/>
</g>
</svg>
